# xmcd
#
# Track frame offsets: 
#        150
#        13037
#        28497
#        53537
#        69730
#        84842
#        105570
#        121580
#        136545
#        147545
#
# Disc length: 2192 seconds
#
# Revision: 0
# Processed by: cddbd v1.4PL0 Copyright (c) Steve Scherf et al.
# Submitted via: ExactAudioCopy v0.90b3
#
DISCID=7d088e0a
DTITLE=Michael Martin Murphey - What's forever for
DYEAR=1900
DGENRE=Country
TTITLE0=What's forever for
TTITLE1=Don't count the rainy days
TTITLE2=Radio land
TTITLE3=Love affairs
TTITLE4=The tow-step is easy
TTITLE5=Disenchated
TTITLE6=The heart never lies
TTITLE7=Maybe this time
TTITLE8=Will it be love by morning
TTITLE9=What she wants
EXTD=
EXTT0=
EXTT1=
EXTT2=
EXTT3=
EXTT4=
EXTT5=
EXTT6=
EXTT7=
EXTT8=
EXTT9=
PLAYORDER=
